<?xml version="1.0" encoding="UTF-8"?>
<svg id="Calque_2" data-name="Calque 2" xmlns="http://www.w3.org/2000/svg" viewBox="0 0 126.61 35.09">
  <defs>
    <style>
      .cls-1 {
        fill: #ffcd00;
        stroke: #fff;
        stroke-miterlimit: 10;
        stroke-width: .5px;
      }
    </style>
  </defs>
  <g id="Page_d_accueil_1" data-name="Page d’accueil 1">
    <g>
      <path class="cls-1" d="m47.32,5.24c1.97-2.11,4.01-3.71,6.67-4.35,4.6-1.12,9.48-.28,12.25,3.88.53.79.86.33,1.25-.11,3.67-4.04,8.2-5.07,13.32-3.61,3.91,1.12,6.25,4.14,6.55,8.18.51,6.89.17,13.8.19,20.69,0,1.33-.32,2.64-1.38,3.63-1.17,1.08-2.51,1.55-4.07,1.14-1.63-.43-2.71-1.47-3.15-3.11-.22-.82-.27-1.67-.27-2.52,0-4.8-.01-9.6.01-14.4,0-1.26-.09-2.51-.27-3.75-.51-3.46-2.96-4.41-6.06-3.49-2.09.62-3.47,2.21-4.01,4.38-.31,1.26-.49,2.53-.49,3.83,0,4.32-.02,8.64-.01,12.96,0,.89-.1,1.77-.27,2.64-.42,2.15-2.12,3.59-4.17,3.6-2.16.01-3.79-1.38-4.26-3.61-.15-.73-.19-1.46-.19-2.2,0-4.76.02-9.52-.01-14.28,0-1.32-.1-2.65-.25-3.97-.27-2.44-1.61-3.6-4.06-3.62-4.15-.03-6.03,1.94-6.51,6.71-.47,4.75-.13,9.51-.23,14.27-.02,1.03,0,2.06-.22,3.08-.45,2.13-2.12,3.59-4.17,3.62-2.03.03-3.79-1.41-4.26-3.52-.15-.68-.24-1.39-.24-2.08-.02-7.9-.01-15.8,0-23.7,0-.59.06-1.18.18-1.76.44-2.13,2.04-3.5,3.99-3.46,1.98.04,3.64,1.55,3.99,3.64.06.36.08.72.15,1.28Z"/>
      <path class="cls-1" d="m124.87,17.7c.09,3.34-.36,6.72.68,10.01.28.88.51,1.77.72,2.67.35,1.53-.22,2.81-1.58,3.7-1.46.95-2.89,1-4.15.11-1.19-.85-2.09-1.98-2.86-3.2-.43-.67-.78-.82-1.48-.29-3.17,2.38-6.68,3.85-10.7,4.11-4.63.3-10.82-2.09-11.63-8.66-.44-3.59,1.62-7.37,5.09-9.06,1.96-.95,4.08-1.3,6.16-1.75,3.43-.75,6.86-1.46,10.26-2.36.8-.21,1.06-.62,1.01-1.42-.23-3.46-1.87-5.09-5.32-5.23-1.22-.05-2.44-.03-3.64.21-1.78.35-3.24,1.21-4.32,2.68-.48.66-.96,1.32-1.36,2.02-1.06,1.86-2.72,1.78-4.34,1.21-1.62-.57-2.39-2.17-1.98-3.97.65-2.91,2.49-4.88,5.09-6.21,2.34-1.19,4.87-1.7,7.47-1.88,3.37-.24,6.71-.09,9.98.88,4.25,1.26,6.09,4.36,6.68,8.49.38,2.65.13,5.31.22,7.96Zm-8.47,2.79q.03-2.56-1.93-2.03c-.39.11-.79.18-1.18.29-2.64.7-5.38.98-7.95,1.97-1.94.75-2.93,2.18-2.87,4.04.07,1.85,1.35,3.62,3.22,4.06,3.38.8,6.38-.02,8.82-2.53,1.71-1.76,1.75-4.06,1.89-5.79Z"/>
      <path class="cls-1" d="m17.45,19.77c-2.33,0-4.66,0-6.98,0-1.32,0-1.5.22-1.33,1.49.94,7.04,7.93,10.09,13.78,6.03,1.46-1.02,2.73-2.26,4.07-3.41,1-.86,2.61-1.06,3.72-.43,1.08.61,1.55,1.82,1.18,3.29-.52,2.08-1.88,3.6-3.55,4.8-3.63,2.6-7.72,3.51-12.16,3.21-2.28-.15-4.49-.49-6.57-1.4C3.91,30.83,1.11,26.26.42,20.25c-.38-3.3-.13-6.56.98-9.71C3.31,5.14,7.12,1.86,12.72.74c5.65-1.14,10.94-.43,15.32,3.65,3.35,3.13,4.89,7.05,4.33,11.66-.18,1.52-1.07,2.51-2.56,3.03-1.86.64-3.79.58-5.7.66-2.21.1-4.43.02-6.65.02Zm-.96-5.06c2.18,0,4.35-.02,6.53,0,.89.01,1.23-.35,1.04-1.21-.17-.75-.3-1.52-.53-2.26-1.26-3.87-5.39-5.93-9.23-4.59-3.27,1.14-4.47,3.81-5.08,6.94-.17.89.17,1.12.97,1.11,2.1-.02,4.21,0,6.31,0Z"/>
    </g>
  </g>
</svg>