<?xml version="1.0" encoding="UTF-8"?>
<!DOCTYPE svg PUBLIC "-//W3C//DTD SVG 1.1//EN" "http://www.w3.org/Graphics/SVG/1.1/DTD/svg11.dtd">
<svg xmlns="http://www.w3.org/2000/svg" version="1.1" width="1167px" height="307px" style="shape-rendering:geometricPrecision; text-rendering:geometricPrecision; image-rendering:optimizeQuality; fill-rule:evenodd; clip-rule:evenodd" xmlns:xlink="http://www.w3.org/1999/xlink">
<g><path style="opacity:0.521" fill="#f2f7f1" d="M 234.5,183.5 C 221.589,181.085 208.589,179.252 195.5,178C 195.632,167.998 193.466,158.498 189,149.5C 188.439,148.978 187.772,148.645 187,148.5C 181.384,151.889 177.55,156.723 175.5,163C 177.2,168.033 178.2,173.2 178.5,178.5C 171.426,178.161 164.426,178.661 157.5,180C 174.964,187.797 193.298,190.797 212.5,189C 220.172,187.33 227.839,185.83 235.5,184.5C 236.5,184.833 237.167,185.5 237.5,186.5C 223.743,189.96 209.743,191.627 195.5,191.5C 192.038,190.518 188.371,190.185 184.5,190.5C 167.002,185.539 149.335,180.706 131.5,176C 113.511,174.393 95.8444,175.893 78.5,180.5C 89.7603,165.395 101.26,150.395 113,135.5C 113.5,94.8347 113.667,54.168 113.5,13.5C 141.407,13.1716 169.241,13.5049 197,14.5C 197.333,55.1667 197.667,95.8333 198,136.5C 210.406,152.061 222.572,167.728 234.5,183.5 Z"/></g>
<g><path style="opacity:0.962" fill="#f2f8f1" d="M 609.5,93.5 C 610.376,93.3691 611.043,93.7025 611.5,94.5C 609.556,96.28 608.223,98.4467 607.5,101C 607.892,102.011 608.559,102.511 609.5,102.5C 603.108,114.616 597.274,126.95 592,139.5C 582.436,152.302 575.436,165.968 571,180.5C 563.688,188.794 559.354,198.461 558,209.5C 555,214.5 552,219.5 549,224.5C 542.513,241.638 535.347,258.471 527.5,275C 525.167,276.667 522.833,278.333 520.5,280C 507.253,280.596 494.587,278.263 482.5,273C 477.86,269.04 474.027,264.54 471,259.5C 470.328,246.098 468.994,232.765 467,219.5C 466.333,218.167 465.667,216.833 465,215.5C 458.611,223.922 452.944,232.922 448,242.5C 442.769,255.231 436.602,267.397 429.5,279C 431.125,279.853 431.458,280.853 430.5,282C 427.228,284.267 424.228,286.933 421.5,290C 419.04,290.981 416.54,291.815 414,292.5C 410.388,290.98 406.555,290.146 402.5,290C 401.123,287.551 399.289,287.051 397,288.5C 395.018,288.01 393.351,287.01 392,285.5C 390.008,281.684 388.174,277.851 386.5,274C 388.999,252.606 388.999,230.939 386.5,209C 387.442,194.896 387.775,180.562 387.5,166C 385.568,161.916 384.902,157.749 385.5,153.5C 385.124,146.456 383.791,139.622 381.5,133C 382.285,129.312 383.285,125.645 384.5,122C 388.292,116.914 391.959,111.747 395.5,106.5C 399.412,104.48 403.579,103.48 408,103.5C 414.063,104.352 420.063,105.352 426,106.5C 427.384,118.918 427.717,131.584 427,144.5C 422.922,169.693 420.588,195.027 420,220.5C 434.688,192.989 451.188,166.656 469.5,141.5C 472.385,140.758 474.885,139.424 477,137.5C 479.185,137.921 481.351,138.421 483.5,139C 489.997,142.414 496.33,146.081 502.5,150C 501.809,151.067 501.309,152.234 501,153.5C 500.294,177.65 499.128,202.15 497.5,227C 498.218,230.461 498.718,233.961 499,237.5C 501.575,234.681 503.908,231.681 506,228.5C 519.579,195.634 537.246,165.301 559,137.5C 560.892,136.87 562.559,135.87 564,134.5C 570.738,124.425 578.238,114.925 586.5,106C 587.833,105.667 589.167,105.333 590.5,105C 593.833,102.333 597.167,99.6667 600.5,97C 604.042,96.8795 607.042,95.7128 609.5,93.5 Z"/></g>
<g><path style="opacity:0.953" fill="#f2f8f1" d="M 857.5,103.5 C 861.693,103.953 865.693,105.119 869.5,107C 874.599,110.425 879.432,114.258 884,118.5C 884.238,122.848 883.905,127.181 883,131.5C 879.848,137.801 876.182,143.801 872,149.5C 869.299,156.576 866.299,163.576 863,170.5C 852.695,185.638 842.195,200.638 831.5,215.5C 825.01,227.974 818.343,240.474 811.5,253C 823.226,252.316 834.226,248.982 844.5,243C 856.191,240.332 867.191,235.998 877.5,230C 887.168,226.561 896.835,223.228 906.5,220C 911.533,219.272 916.533,219.439 921.5,220.5C 927.47,218.287 933.47,218.12 939.5,220C 935.639,220.569 935.639,221.402 939.5,222.5C 936.847,224.663 933.847,225.497 930.5,225C 931.846,223.358 931.513,222.691 929.5,223C 927.479,225.043 927.146,227.043 928.5,229C 925.05,229.763 922.05,231.263 919.5,233.5C 925.979,234.176 926.146,235.509 920,237.5C 919.667,237.167 919.333,236.833 919,236.5C 914.912,238.794 910.745,240.961 906.5,243C 904.167,244.243 903.5,245.909 904.5,248C 898.604,251.41 892.438,254.244 886,256.5C 885.333,257.167 885.333,257.833 886,258.5C 892.633,256.394 899.3,254.394 906,252.5C 906.617,253.449 906.451,254.282 905.5,255C 896.981,258.751 888.315,262.084 879.5,265C 876.367,265.393 873.367,266.226 870.5,267.5C 866.449,266.261 862.949,267.261 860,270.5C 859.215,272.286 858.049,273.786 856.5,275C 858.301,275.317 858.634,275.984 857.5,277C 854.167,278.667 850.833,280.333 847.5,282C 830.167,286.611 813.167,292.111 796.5,298.5C 793.153,298.334 790.319,297 788,294.5C 783.954,287.317 781.287,279.65 780,271.5C 774.312,263.908 774.145,256.075 779.5,248C 778.584,247.626 777.75,247.126 777,246.5C 775.883,246.665 774.716,246.998 773.5,247.5C 771.785,246.285 769.951,245.285 768,244.5C 766.875,246.109 764.708,246.776 761.5,246.5C 757.545,245.741 753.711,245.741 750,246.5C 748.562,245.282 746.895,244.615 745,244.5C 734.943,244.603 724.609,245.27 714,246.5C 709.383,246.56 704.883,245.893 700.5,244.5C 699.228,244.57 698.062,244.903 697,245.5C 690.302,256.187 683.635,266.854 677,277.5C 674.367,280.533 671.534,283.2 668.5,285.5C 666.67,285.224 665.003,284.557 663.5,283.5C 661.802,280.208 660.802,276.708 660.5,273C 662.257,265.546 663.757,258.046 665,250.5C 683.226,209.714 701.726,169.048 720.5,128.5C 721.376,127.749 722.376,127.249 723.5,127C 729.5,126.333 735.5,126.333 741.5,127C 743.667,127.833 745.167,129.333 746,131.5C 746.541,138.596 745.874,145.596 744,152.5C 740.879,159.352 738.545,166.352 737,173.5C 738.113,172.289 739.28,172.289 740.5,173.5C 751.091,167.518 762.425,165.018 774.5,166C 780.159,168.785 783.825,173.285 785.5,179.5C 784.36,181.473 783.027,183.307 781.5,185C 777.286,187.186 772.953,189.186 768.5,191C 755,199.584 741.333,207.918 727.5,216C 741.832,218.065 756.166,220.398 770.5,223C 776.591,224.546 782.591,226.379 788.5,228.5C 808.03,191.437 827.53,154.437 847,117.5C 850.332,112.673 853.832,108.007 857.5,103.5 Z"/></g>
<g><path style="opacity:0.949" fill="#f2f8f1" d="M 641.5,118.5 C 643.314,118.772 645.314,118.939 647.5,119C 652.767,121.192 657.933,123.359 663,125.5C 663.735,137.063 663.235,148.563 661.5,160C 662.044,164.836 661.544,169.669 660,174.5C 659.333,180.5 659.333,186.5 660,192.5C 663.886,191.76 667.553,190.427 671,188.5C 672.651,189.742 674.485,190.576 676.5,191C 675.833,191.667 675.167,192.333 674.5,193C 674.925,195.017 674.925,196.851 674.5,198.5C 668.196,202.639 663.029,207.972 659,214.5C 658.462,223.761 656.129,232.427 652,240.5C 651.15,247.917 649.65,255.083 647.5,262C 647.796,267.71 647.963,273.543 648,279.5C 647.626,280.416 647.126,281.25 646.5,282C 643.489,281.198 640.489,281.365 637.5,282.5C 632.891,261.076 631.224,239.743 632.5,218.5C 623.434,220.276 614.434,221.109 605.5,221C 603.282,224.605 601.448,228.438 600,232.5C 599.107,231.289 598.274,231.289 597.5,232.5C 593.71,239.082 590.21,245.749 587,252.5C 584.527,254.973 582.027,257.473 579.5,260C 575.422,259.647 571.422,258.647 567.5,257C 564.339,253.086 562.673,248.586 562.5,243.5C 563.988,237.849 565.488,232.183 567,226.5C 573.159,213.707 580.825,202.04 590,191.5C 602.393,173.437 614.393,155.104 626,136.5C 630.687,129.988 635.854,123.988 641.5,118.5 Z M 633.5,166.5 C 634.139,167.097 634.472,167.93 634.5,169C 634.006,175.337 633.006,181.504 631.5,187.5C 631.753,189.858 632.086,192.192 632.5,194.5C 628.145,195.339 623.811,196.339 619.5,197.5C 618.833,197.167 618.167,196.833 617.5,196.5C 621.911,188.75 626.411,181.083 631,173.5C 632.136,171.257 632.97,168.924 633.5,166.5 Z"/></g>
<g><path style="opacity:0.949" fill="#f2f8f1" d="M 1020.5,118.5 C 1022.31,118.772 1024.31,118.939 1026.5,119C 1031.77,121.192 1036.93,123.359 1042,125.5C 1042.74,137.063 1042.24,148.563 1040.5,160C 1041.04,164.836 1040.54,169.669 1039,174.5C 1038.33,180.5 1038.33,186.5 1039,192.5C 1042.89,191.76 1046.55,190.427 1050,188.5C 1051.65,189.742 1053.48,190.576 1055.5,191C 1054.83,191.667 1054.17,192.333 1053.5,193C 1053.93,195.017 1053.93,196.851 1053.5,198.5C 1047.2,202.639 1042.03,207.972 1038,214.5C 1037.46,223.761 1035.13,232.427 1031,240.5C 1030.15,247.917 1028.65,255.083 1026.5,262C 1026.8,267.71 1026.96,273.543 1027,279.5C 1026.63,280.416 1026.13,281.25 1025.5,282C 1022.49,281.198 1019.49,281.365 1016.5,282.5C 1011.89,261.076 1010.22,239.743 1011.5,218.5C 1002.43,220.276 993.434,221.109 984.5,221C 982.282,224.605 980.448,228.438 979,232.5C 978.107,231.289 977.274,231.289 976.5,232.5C 972.71,239.082 969.21,245.749 966,252.5C 963.527,254.973 961.027,257.473 958.5,260C 954.422,259.647 950.422,258.647 946.5,257C 943.339,253.086 941.673,248.586 941.5,243.5C 942.988,237.849 944.488,232.183 946,226.5C 952.159,213.707 959.825,202.04 969,191.5C 981.393,173.437 993.393,155.104 1005,136.5C 1009.69,129.988 1014.85,123.988 1020.5,118.5 Z M 1012.5,166.5 C 1013.14,167.097 1013.47,167.93 1013.5,169C 1013.01,175.337 1012.01,181.504 1010.5,187.5C 1010.75,189.858 1011.09,192.192 1011.5,194.5C 1007.14,195.339 1002.81,196.339 998.5,197.5C 997.833,197.167 997.167,196.833 996.5,196.5C 1000.91,188.75 1005.41,181.083 1010,173.5C 1011.14,171.257 1011.97,168.924 1012.5,166.5 Z"/></g>
<g><path style="opacity:0.952" fill="#f2f8f1" d="M 1101.5,121.5 C 1117.7,123.177 1132.53,128.51 1146,137.5C 1152.99,148.293 1152.66,158.959 1145,169.5C 1139.47,175.027 1133.97,180.527 1128.5,186C 1137.01,186.839 1144.51,190.005 1151,195.5C 1157.06,213.45 1153.9,229.45 1141.5,243.5C 1137.51,246.831 1133.18,249.664 1128.5,252C 1119.82,255.438 1111.15,258.938 1102.5,262.5C 1101.81,261.975 1101.31,261.308 1101,260.5C 1084.4,268.708 1067.24,275.708 1049.5,281.5C 1046.18,278.506 1042.51,276.006 1038.5,274C 1033.74,268.889 1033.9,263.722 1039,258.5C 1041.76,255.073 1045.09,252.407 1049,250.5C 1053.07,236.621 1057.74,222.954 1063,209.5C 1063.39,203.053 1065.72,197.386 1070,192.5C 1077.03,177.144 1083.86,162.144 1090.5,147.5C 1086.1,145.598 1082.43,142.765 1079.5,139C 1083.77,129.218 1091.11,123.385 1101.5,121.5 Z M 1108.5,147.5 C 1112.32,149.673 1116.32,150.34 1120.5,149.5C 1123.15,149.929 1125.15,151.262 1126.5,153.5C 1121.46,164.553 1113.12,171.553 1101.5,174.5C 1101.71,172.856 1101.38,171.356 1100.5,170C 1104.72,163.046 1107.39,155.546 1108.5,147.5 Z M 1098.5,210.5 C 1108.57,210.827 1118.57,211.661 1128.5,213C 1122.49,222.677 1113.82,228.343 1102.5,230C 1096.11,233.584 1089.44,235.918 1082.5,237C 1081.94,236.275 1081.61,235.442 1081.5,234.5C 1083.49,227.66 1086.16,221.16 1089.5,215C 1092.51,213.348 1095.51,211.848 1098.5,210.5 Z"/></g>
<g><path style="opacity:1" fill="#228785" d="M 234.5,183.5 C 235.167,183.5 235.5,183.833 235.5,184.5C 227.839,185.83 220.172,187.33 212.5,189C 193.298,190.797 174.964,187.797 157.5,180C 164.426,178.661 171.426,178.161 178.5,178.5C 178.2,173.2 177.2,168.033 175.5,163C 177.55,156.723 181.384,151.889 187,148.5C 187.772,148.645 188.439,148.978 189,149.5C 193.466,158.498 195.632,167.998 195.5,178C 208.589,179.252 221.589,181.085 234.5,183.5 Z"/></g>
<g><path style="opacity:0.922" fill="#419492" d="M 198.5,160.5 C 199.5,160.5 200.5,160.5 201.5,160.5C 201.55,162.59 200.55,163.923 198.5,164.5C 197.374,163.192 197.374,161.858 198.5,160.5 Z"/></g>
<g><path style="opacity:1" fill="#2a8785" d="M 169.5,160.5 C 172.68,160.176 173.847,161.51 173,164.5C 170.929,163.897 169.762,162.564 169.5,160.5 Z"/></g>
<g><path style="opacity:1" fill="#2a8987" d="M 198.5,168.5 C 204.962,169.713 204.962,171.713 198.5,174.5C 197.306,172.484 197.306,170.484 198.5,168.5 Z"/></g>
<g><path style="opacity:1" fill="#308987" d="M 170.5,168.5 C 174.314,168.651 175.981,170.651 175.5,174.5C 170.459,175.042 168.793,173.042 170.5,168.5 Z"/></g>
<g><path style="opacity:0.995" fill="#35d6d3" d="M 184.5,190.5 C 183.5,190.5 182.5,190.5 181.5,190.5C 181.667,204.837 181.5,219.171 181,233.5C 180.43,239.872 179.596,246.205 178.5,252.5C 170.195,247.031 163.862,239.864 159.5,231C 160.5,229.333 161.5,227.667 162.5,226C 161.069,221.92 159.902,217.753 159,213.5C 157.506,212.253 156.006,212.253 154.5,213.5C 148.884,225.273 141.218,235.44 131.5,244C 128.978,245.341 126.311,246.174 123.5,246.5C 126.991,225.775 131.991,205.775 138.5,186.5C 127.285,199.259 119.451,213.925 115,230.5C 112.745,239.772 110.745,249.106 109,258.5C 108.176,261.882 108.343,265.216 109.5,268.5C 118.867,257.303 130.533,249.303 144.5,244.5C 149.553,253.389 156.22,260.889 164.5,267C 178.549,270.558 187.716,265.391 192,251.5C 194.593,231.587 195.76,211.587 195.5,191.5C 209.743,191.627 223.743,189.96 237.5,186.5C 257.136,210.98 276.636,235.646 296,260.5C 301.552,275.558 297.052,286.391 282.5,293C 197.833,293.667 113.167,293.667 28.5,293C 15.3901,287.954 10.2234,278.454 13,264.5C 14.8287,260.172 17.162,256.172 20,252.5C 39.3641,228.311 58.8641,204.311 78.5,180.5C 95.8444,175.893 113.511,174.393 131.5,176C 149.335,180.706 167.002,185.539 184.5,190.5 Z"/></g>
<g><path style="opacity:1" fill="#1a8583" d="M 184.5,190.5 C 188.371,190.185 192.038,190.518 195.5,191.5C 195.76,211.587 194.593,231.587 192,251.5C 187.716,265.391 178.549,270.558 164.5,267C 156.22,260.889 149.553,253.389 144.5,244.5C 130.533,249.303 118.867,257.303 109.5,268.5C 108.343,265.216 108.176,261.882 109,258.5C 110.745,249.106 112.745,239.772 115,230.5C 119.451,213.925 127.285,199.259 138.5,186.5C 131.991,205.775 126.991,225.775 123.5,246.5C 126.311,246.174 128.978,245.341 131.5,244C 141.218,235.44 148.884,225.273 154.5,213.5C 156.006,212.253 157.506,212.253 159,213.5C 159.902,217.753 161.069,221.92 162.5,226C 161.5,227.667 160.5,229.333 159.5,231C 163.862,239.864 170.195,247.031 178.5,252.5C 179.596,246.205 180.43,239.872 181,233.5C 181.5,219.171 181.667,204.837 181.5,190.5C 182.5,190.5 183.5,190.5 184.5,190.5 Z"/></g>
</svg>
