<svg data-name="Calque 2" xmlns="http://www.w3.org/2000/svg" viewBox="0 0 190 63.34"><defs><filter id="a" filterUnits="userSpaceOnUse"><feOffset/><feGaussianBlur result="blur" stdDeviation="5"/><feFlood flood-color="#fff" flood-opacity=".4"/><feComposite in2="blur" operator="in"/><feComposite in="SourceGraphic"/></filter><filter id="b" filterUnits="userSpaceOnUse"><feOffset/><feGaussianBlur result="blur-2" stdDeviation="5"/><feFlood flood-color="#fff" flood-opacity=".4"/><feComposite in2="blur-2" operator="in"/><feComposite in="SourceGraphic"/></filter><filter id="c" filterUnits="userSpaceOnUse"><feOffset/><feGaussianBlur result="blur-3" stdDeviation="5"/><feFlood flood-color="#000" flood-opacity=".75"/><feComposite in2="blur-3" operator="in"/><feComposite in="SourceGraphic"/></filter><filter id="d" filterUnits="userSpaceOnUse"><feOffset/><feGaussianBlur result="blur-4" stdDeviation="5"/><feFlood flood-color="#000" flood-opacity=".75"/><feComposite in2="blur-4" operator="in"/><feComposite in="SourceGraphic"/></filter></defs><g data-name="Page d’accueil 1"><path d="M49.9 54.63c0 1.07-.14 2.03-.41 2.88-.27.85-.63 1.6-1.07 2.24-.45.64-.96 1.19-1.55 1.65-.59.45-1.21.82-1.85 1.11-.64.29-1.3.5-1.96.63-.66.14-1.29.2-1.87.2h-11.2c-.86 0-1.8-.15-2.82-.45-1.02-.3-1.96-.8-2.83-1.49-.87-.69-1.59-1.59-2.17-2.7-.58-1.11-.87-2.46-.87-4.07v-8.41c0-1.59.29-2.94.87-4.05.58-1.11 1.31-2.01 2.17-2.7.87-.69 1.81-1.19 2.83-1.49 1.02-.3 1.96-.45 2.82-.45h11.2c1.59 0 2.95.29 4.06.86 1.11.57 2.01 1.29 2.7 2.16.68.87 1.18 1.81 1.49 2.83.31 1.02.47 1.97.47 2.84v8.41zm-6.21-8.36c0-.86-.21-1.5-.64-1.91-.43-.41-1.05-.62-1.86-.62H30.04c-.83 0-1.46.21-1.89.63-.43.42-.64 1.04-.64 1.85v8.41c0 .81.22 1.43.64 1.86.43.43 1.06.64 1.89.64h11.15c.84 0 1.47-.21 1.89-.64.41-.43.62-1.05.62-1.86v-8.36zm35.82-6.83a3 3 0 0 1 .2 1.79c-.12.61-.39 1.13-.82 1.58L64.54 57.14h14.93v6.21h-22.4c-.64 0-1.21-.18-1.73-.54-.52-.36-.9-.82-1.16-1.37-.24-.59-.3-1.19-.18-1.8.12-.61.41-1.15.87-1.61l14.28-14.28H54.22v-6.21h22.45c.62 0 1.19.17 1.71.5.52.33.9.8 1.13 1.41zm11.25 23.9h-6.21V36.95h6.21v26.39zm24.02 0h-8.96L93.31 51.26c-.7-.64-1.03-1.43-.98-2.39.03-.45.15-.86.35-1.25.2-.39.47-.72.82-.99l11.34-9.15h9.93l-14.62 11.77 14.62 14.09zm29.3-8.55c0 .86-.15 1.79-.45 2.78-.3 1-.79 1.92-1.47 2.77-.68.85-1.56 1.56-2.65 2.14-1.09.57-2.42.86-3.98.86h-11.2c-.86 0-1.79-.15-2.78-.45-1-.3-1.92-.79-2.77-1.47-.85-.68-1.56-1.56-2.14-2.65-.57-1.09-.86-2.42-.86-3.98 0-.86.15-1.79.45-2.79.3-1 .79-1.93 1.47-2.78.68-.85 1.56-1.56 2.65-2.14 1.09-.57 2.42-.86 3.98-.86h11.2v5.92h-11.2c-.84 0-1.5.26-1.96.78-.46.52-.69 1.16-.69 1.92 0 .81.27 1.44.8 1.9.53.45 1.17.68 1.9.68h11.15c.84 0 1.5-.25 1.96-.76.46-.51.69-1.15.69-1.91v-8.67c0-.81-.25-1.46-.75-1.93-.5-.48-1.13-.72-1.9-.72h-13.64v-5.9h13.64c.86 0 1.79.15 2.78.45.99.3 1.92.79 2.77 1.47.85.68 1.56 1.56 2.14 2.65.57 1.09.86 2.42.86 3.98v8.72zm27.9-11.05h-13.97c-.84 0-1.48.21-1.91.63-.43.42-.64 1.04-.64 1.85v17.12h-6.21V46.22c0-1.07.14-2.02.41-2.87.27-.84.63-1.59 1.09-2.23.45-.64.97-1.19 1.56-1.65.59-.45 1.21-.82 1.85-1.11.64-.29 1.3-.5 1.96-.63.66-.14 1.28-.2 1.85-.2h14.02v6.21zm.29-7.47s-9.25-2.08-17.91-2.68c-8.66-.6-41.94-2.24-41.94-2.24L97.49 20.16s-22.19.3-24.28.6-6.37 5.77-6.77 6.27.8 1.19.8 1.19 4.07-4.38 5.47-5.17c1.39-.8 22.9-1.19 22.9-1.19l9.83 7.06v2.39s-23.98-.3-28.86-.5c-4.88-.2-8.96-2.16-11.54-2.32-2.59-.17-20.7.18-26.59.41-5.9.22-15 1.27-15 1.27s14.83-.65 25.17-.75c10.35-.1 14.73.2 17.01.2s6.37 1.99 8.46 2.09c2.09.1 36.62.7 43.48.8 6.87.1 41.69 2.13 54.68 3.78z" style="fill:#fff;stroke-width:0"/><path d="m118.19 29.4-15.45-10.74c-1.78-1.24-3.89-1.9-6.06-1.9-7.32 0-24.76.16-32.7 1.43-10.2 1.63-38.18 10.52-41.29 11.05-3.1.53-4.4-.92-5.27-.72s-1.77 7.75-1.77 7.75l-.38-.76s.66-6.69 1.65-7.28 2.89 1.24 5.76.33c2.88-.92 31.7-9.85 41.08-11.18 7.05-.99 24.25-1.3 32.37-1.39 2.83-.03 5.6.85 7.9 2.52l14.14 10.27v.61z" style="filter:url(#a);fill:#fff;stroke-width:0"/><path d="M174.86 34.76s-6.57-2.49-15.02-3.38c-8.46-.9-41.69-1.99-41.69-1.99v-.6s32.88 1.16 42.41 2.17c9.53 1.01 14.31 3.8 14.31 3.8z" style="filter:url(#b);fill:#fff;stroke-width:0"/><path d="m117.6 30.7-15.23-10.49a10.538 10.538 0 0 0-5.97-1.86c-7.21 0-24.4.16-32.23 1.4-10.05 1.59-37.64 10.27-40.7 10.8-3.06.52-4.34-.89-5.19-.71s-1.75 7.57-1.75 7.57l-.37-.75s.65-6.54 1.63-7.11 2.85 1.22 5.68.32c2.84-.9 31.24-9.63 40.5-10.92 6.95-.97 23.91-1.27 31.9-1.36 2.79-.03 5.52.83 7.79 2.47L117.6 30.1v.6z" style="filter:url(#c);fill:#fff;stroke-width:0"/><path d="M174.31 36.07s-6.57-2.49-15.02-3.38c-8.46-.9-41.69-1.99-41.69-1.99v-.6s32.88 1.16 42.41 2.17c9.53 1.01 14.31 3.8 14.31 3.8z" style="fill:#fff;stroke-width:0;filter:url(#d)"/></g></svg>